HIERARCHY
ROOT Hips
{
	OFFSET 0.000000 0.000000 0.000000
	CHANNELS 6 Xposition Yposition Zposition Zrotation Yrotation Xrotation 
	JOINT LHipJoint
	{
		OFFSET 0.000000 0.000000 0.000000
		CHANNELS 3 Zrotation Yrotation Xrotation
		JOINT LeftUpLeg
		{
			OFFSET 1.363060 -1.794630 0.839290
			CHANNELS 3 Zrotation Yrotation Xrotation
			JOINT LeftLeg
			{
				OFFSET 2.448110 -6.726130 0.000000
				CHANNELS 3 Zrotation Yrotation Xrotation
				JOINT LeftFoot
				{
					OFFSET 2.562200 -7.039590 0.000000
					CHANNELS 3 Zrotation Yrotation Xrotation
					JOINT LeftToeBase
					{
						OFFSET 0.157640 -0.433110 2.322550
						CHANNELS 3 Zrotation Yrotation Xrotation
						End Site
						{
							OFFSET 0.000000 0.000000 0.000000
						}
					}
				}
			}
		}
	}
	JOINT RHipJoint
	{
		OFFSET 0.000000 0.000000 0.000000
		CHANNELS 3 Zrotation Yrotation Xrotation
		JOINT RightUpLeg
		{
			OFFSET -1.305520 -1.794630 0.839290
			CHANNELS 3 Zrotation Yrotation Xrotation
			JOINT RightLeg
			{
				OFFSET -2.542530 -6.985550 0.000000
				CHANNELS 3 Zrotation Yrotation Xrotation
				JOINT RightFoot
				{
					OFFSET -2.568260 -7.056230 0.000000
					CHANNELS 3 Zrotation Yrotation Xrotation
					JOINT RightToeBase
					{
						OFFSET -0.164730 -0.452590 2.363150
						CHANNELS 3 Zrotation Yrotation Xrotation
						End Site
						{
							OFFSET 0.000000 0.000000 0.000000
						}
					}
				}
			}
		}
	}
}
MOTION
Frames: 16
Frame Time: 0.008333
-0.136799 17.121884 -1.595624 128.754441 -76.405800 -131.041118 -4.948184 -5.508086 0.726601 -11.327283 -1.893027 -87.206033 -4.167688 -1.143889 -0.408552 0.421667 5.779647 16.560228 3.293700 0.000000 -53.385200 11.106049 1.887698 -5.389907 3.611143 1.953450 -0.385412 1.249189 -1.908475 19.453830 -1.037823 -3.191109 -8.945404 -0.039700 0.000000 -44.774300
-0.134197 17.112568 -1.597198 129.418050 -76.396296 -131.827028 -5.149980 -5.473613 0.659340 -10.344793 -1.723335 -86.708904 -3.678679 -0.710453 2.978686 0.949795 8.840574 17.350071 4.711400 0.000000 -50.292801 11.043417 1.855977 -5.346483 3.829024 2.103779 -0.377162 1.264640 -1.922249 19.687935 -1.051144 -3.251377 -9.037937 -0.032599 -0.000000 -45.063400
-0.131282 17.104141 -1.600598 129.561191 -76.444904 -132.168191 -5.311425 -5.483320 0.562498 -9.125222 -1.728702 -85.802441 -3.163584 -0.329052 6.171565 1.401673 11.420029 18.577863 6.040899 -0.000000 -47.117700 10.999555 1.831839 -5.353927 3.962674 2.045387 -0.230845 1.277395 -1.934292 19.805417 -1.053168 -3.257449 -9.081268 -0.028500 0.000000 -45.504000
-0.128386 17.097417 -1.606035 129.130959 -76.566827 -131.986015 -5.437733 -5.516744 0.447580 -7.855451 -1.964028 -84.567416 -2.682544 -0.009146 9.108642 1.725426 13.263978 20.054354 7.123800 -0.000000 -44.537999 10.982277 1.810481 -5.403587 3.996307 1.753727 0.005547 1.287927 -1.942818 19.806327 -1.039623 -3.186797 -9.071445 -0.027600 -0.000000 -46.109800
-0.125916 17.093019 -1.613488 128.134756 -76.768778 -131.257884 -5.540774 -5.552202 0.327064 -6.694912 -2.443262 -83.128368 -2.273809 0.258141 11.804182 1.901785 14.233153 21.578280 7.809200 0.000000 -42.940200 10.996042 1.786680 -5.481570 3.931135 1.237891 0.281326 1.296745 -1.945963 19.697040 -1.009517 -3.034099 -9.007361 -0.029500 -0.000001 -46.874400
-0.124391 17.091434 -1.622745 126.627694 -77.041581 -130.010684 -5.631075 -5.572658 0.211425 -5.748336 -3.137485 -81.600301 -1.949990 0.487840 14.301622 1.940714 14.320133 23.001453 8.012200 0.000000 -42.522800 11.043284 1.756940 -5.572047 3.776198 0.532089 0.552786 1.303663 -1.942280 19.490556 -0.963902 -2.804458 -8.888534 -0.033900 0.000000 -47.803200
-0.124438 17.092760 -1.633368 124.758323 -77.356855 -128.380376 -5.717303 -5.564789 0.096873 -5.130928 -3.947653 -80.103768 -1.713738 0.703759 16.724761 1.856977 13.522377 24.176350 7.665500 0.000000 -42.987300 11.120108 1.718427 -5.655096 3.557724 -0.296284 0.796409 1.309098 -1.930376 19.208168 -0.906532 -2.514378 -8.730177 -0.039099 -0.000000 -48.776700
-0.126298 17.096999 -1.644916 122.673477 -77.677316 -126.504646 -5.802388 -5.526940 -0.014359 -4.831164 -4.790318 -78.655831 -1.544261 0.910900 19.084902 1.690270 12.042261 25.132845 6.876000 -0.000000 -44.469300 11.223124 1.672821 -5.718018 3.292164 -1.181254 0.999588 1.311256 -1.910385 18.867929 -0.841223 -2.183889 -8.530524 -0.045000 0.000000 -49.847900
-0.130518 17.103711 -1.656594 120.624004 -77.963987 -124.636598 -5.892395 -5.460055 -0.132953 -4.870465 -5.540363 -77.287223 -1.425484 1.119312 21.460633 1.470283 10.020399 25.868340 5.728700 0.000000 -46.544399 11.338612 1.619777 -5.745597 3.015286 -2.033978 1.166246 1.310499 -1.882543 18.493282 -0.773954 -1.841828 -8.308485 -0.050100 0.000001 -50.902700
-0.137383 17.112432 -1.667670 118.827901 -78.188453 -122.993759 -5.991661 -5.371480 -0.261146 -5.189792 -6.120945 -75.971929 -1.334040 1.324320 23.837726 1.238076 7.713042 26.486610 4.395300 0.000000 -49.064399 11.453428 1.560247 -5.729829 2.752262 -2.782789 1.299933 1.306841 -1.848370 18.104516 -0.709807 -1.514287 -8.077490 -0.054300 -0.000000 -51.895300
-0.146954 17.122545 -1.677425 117.473640 -78.336301 -121.766101 -6.104866 -5.269453 -0.400217 -5.720842 -6.481426 -74.682590 -1.251142 1.518751 26.189190 1.029869 5.372260 27.086760 3.033600 0.000000 -51.714400 11.553912 1.494240 -5.666806 2.526410 -3.371190 1.404047 1.301202 -1.810043 17.720452 -0.653074 -1.224219 -7.851723 -0.057400 0.000000 -52.795000
-0.159241 17.133486 -1.685525 116.668112 -78.403876 -121.057750 -6.233842 -5.160086 -0.546314 -6.382200 -6.611348 -73.393321 -1.163404 1.693438 28.465120 0.874905 3.245716 27.759462 1.785000 0.000000 -54.198600 11.630947 1.422066 -5.556927 2.353127 -3.765965 1.477724 1.294648 -1.769742 17.357047 -0.606588 -0.987221 -7.645290 -0.059699 0.000000 -53.564200
-0.174158 17.144712 -1.691758 116.438643 -78.397180 -120.891104 -6.377815 -5.046362 -0.692260 -7.095234 -6.532341 -72.086176 -1.063993 1.840716 30.613433 0.790637 1.544481 28.554705 0.763100 0.000000 -56.253600 11.679718 1.344445 -5.404686 2.240493 -3.959580 1.517714 1.288487 -1.729066 17.025656 -0.571440 -0.809687 -7.469249 -0.061700 0.000000 -54.182600
-0.191330 17.155727 -1.696055 116.738707 -78.328703 -121.218503 -6.533564 -4.929380 -0.829805 -7.791921 -6.288969 -70.750954 -0.951960 1.955929 32.592952 0.781818 0.422972 29.467154 0.054500 0.000000 -57.689901 11.699446 1.263033 -5.218040 2.190017 -3.967179 1.520230 1.284029 -1.688937 16.732664 -0.547128 -0.689224 -7.330233 -0.063499 -0.000000 -54.643600
-0.210607 17.166260 -1.698814 117.455669 -78.211376 -121.921784 -6.694457 -4.807402 -0.949863 -8.422643 -5.943265 -69.381466 -0.831297 2.037951 34.376282 0.842468 -0.028326 30.435722 -0.276500 -0.000000 -58.407900 11.695706 1.180309 -5.006912 2.190912 -3.826830 1.480446 1.281983 -1.649575 16.481357 -0.531141 -0.611060 -7.232247 -0.065100 -0.000000 -54.938500
-0.231793 17.175959 -1.699693 118.514409 -78.068082 -122.927859 -6.860996 -4.683269 -1.047262 -8.944998 -5.541948 -67.989796 -0.705684 2.091268 35.986373 0.958932 0.178312 31.350046 -0.215400 0.000000 -58.428000 11.663132 1.095759 -4.781403 2.257762 -3.568074 1.409484 1.284462 -1.609713 16.255859 -0.522993 -0.575395 -7.163943 -0.067200 -0.000001 -55.128000
